<svg width="1073" height="609" viewBox="0 0 1073 609" fill="none" xmlns="http://www.w3.org/2000/svg">
<rect x="1" y="1" width="1071" height="607" stroke="black" stroke-width="2"/>
<path d="M190.702 370.253H242.615L250 377.633V539.984L242.615 547.363H171.871L175.452 541.829H240.326L244.462 537.696V379.92L240.326 375.788H195.575L190.295 403.055H184.646L189.705 375.529L190.738 370.253H190.702ZM65.3846 547.363L58 539.984V377.633L65.3846 370.253H138.862L135.132 375.788H67.6738L63.5385 379.92V537.696L67.6738 541.829H121.138L120.252 547.363H65.3846ZM76.4615 528.914H107.846L106.738 534.449H72.7692L70.9231 532.604V499.396L76.4615 510.465V528.914ZM202 528.914L207.538 534.449H179.846L183.538 528.914H202Z" fill="#B7BBBD"/>
<path d="M141.765 481.009H91.3343L85.2103 469.494L170.06 344L183.415 349.536L166.666 436.718H216.764L222.962 448.123L141.801 573.616L128.299 568.449L141.765 481.009ZM78.4224 396.117C76.9547 396.117 75.5472 395.533 74.5094 394.495C73.4717 393.457 72.8887 392.049 72.8887 390.58C72.8887 389.112 73.4717 387.704 74.5094 386.665C75.5472 385.627 76.9547 385.044 78.4224 385.044C79.89 385.044 81.2975 385.627 82.3353 386.665C83.373 387.704 83.956 389.112 83.956 390.58C83.956 392.049 83.373 393.457 82.3353 394.495C81.2975 395.533 79.89 396.117 78.4224 396.117ZM93.1788 396.117C91.7112 396.117 90.3037 395.533 89.2659 394.495C88.2282 393.457 87.6452 392.049 87.6452 390.58C87.6452 389.112 88.2282 387.704 89.2659 386.665C90.3037 385.627 91.7112 385.044 93.1788 385.044C94.6465 385.044 96.054 385.627 97.0917 386.665C98.1295 387.704 98.7125 389.112 98.7125 390.58C98.7125 392.049 98.1295 393.457 97.0917 394.495C96.054 395.533 94.6465 396.117 93.1788 396.117ZM107.935 396.117C106.468 396.117 105.06 395.533 104.022 394.495C102.985 393.457 102.402 392.049 102.402 390.58C102.402 389.112 102.985 387.704 104.022 386.665C105.06 385.627 106.468 385.044 107.935 385.044C109.403 385.044 110.81 385.627 111.848 386.665C112.886 387.704 113.469 389.112 113.469 390.58C113.469 392.049 112.886 393.457 111.848 394.495C110.81 395.533 109.403 396.117 107.935 396.117Z" fill="url(#paint0_linear_1310_2)"/>
<path d="M99.1204 93.3094L111.846 100.665V115.376L99.1204 122.731L86.3944 115.376V100.665L99.1204 93.3094ZM84.2524 205.953L99.1204 191.074L113.988 205.953L99.1204 220.832L84.2524 205.953ZM99.1204 144.167C101.611 144.167 104.034 144.907 106.134 146.294C108.205 147.681 109.822 149.648 110.754 151.968C111.709 154.272 111.959 156.808 111.473 159.255C110.987 161.701 109.787 163.949 108.024 165.712C106.26 167.478 104.018 168.676 101.556 169.163C99.1166 169.647 96.5884 169.396 94.2904 168.444C91.9903 167.49 90.0194 165.883 88.6204 163.821C87.2326 161.744 86.4929 159.301 86.4952 156.802C86.4952 153.456 87.8224 150.245 90.187 147.891C92.5484 145.527 95.751 144.198 99.091 144.197L99.1204 144.167ZM43.2604 47.075L70.2244 26.5217L75.3064 24.9666H197.106L202.104 26.6058L229.866 47.1591L233.31 53.9261V213.645L231 219.445L210.714 240.923L204.582 243.571H71.4424L65.6884 241.301L42.6724 219.823L39.9844 213.645V53.9261L43.2604 47.075ZM56.7424 153.834L75.5164 174.598H75.7516V191.41H68.0656L56.7256 178.801V209.862L74.6176 226.675H200.618L216.158 210.24V177.792L200.744 191.41H122.624V174.598H194.864L216.662 155.221V123.95L201.248 137.61H122.708V120.798H194.948L216.746 101.463V72.3778L201.332 86.08H68.6116L57.1036 74.3113V100.034L75.8776 120.798H76.1128V137.61H68.4268L57.0868 125.001L56.7424 153.834ZM194.082 41.6109H78.1624L61.0684 54.6827L75.3484 69.3095H194.628L211.428 54.3464L194.082 41.6109Z" fill="#ED8338"/>
<g clip-path="url(#clip0_1310_2)">
<path opacity="0.993" d="M875.543 370.017C876.05 369.951 876.497 370.079 876.884 370.4C891.131 387.809 904.539 405.834 917.106 424.475C926.41 438.499 934.327 453.328 940.856 468.961C951.284 496.805 945.857 521.03 924.576 541.636C905.956 557.391 884.504 563.527 860.221 560.044C831.194 554.119 811.466 537.309 801.037 509.613C798.32 500.596 797.426 491.392 798.355 482.001C799.902 465.835 803.733 450.239 809.847 435.213C812.395 429.082 815.715 423.457 819.807 418.338C823.145 422.319 826.337 426.41 829.384 430.611C830.794 432.087 832.262 433.493 833.789 434.829C845.441 411.679 859.359 390.075 875.543 370.017Z" fill="#FF5B11"/>
<path d="M872.862 401.081C886.918 417.403 899.623 434.788 910.977 453.238C914.537 459.342 917.474 465.734 919.788 472.413C924.608 491.4 919.437 507.06 904.273 519.393C889.608 529.724 873.519 532.792 856.007 528.597C837.122 522.73 826.205 510.01 823.255 490.438C822.539 484.267 823.177 478.258 825.17 472.413C828.011 465.189 831.459 458.286 835.513 451.704C839.343 446.079 843.174 440.454 847.005 434.829C855.707 423.627 864.326 412.378 872.862 401.081Z" fill="#FF9758"/>
</g>
<path d="M664.09 108.41C665.472 105.997 664.625 102.942 662.198 101.586C659.772 100.23 656.684 101.087 655.302 103.499L639.08 131.819C637.698 134.232 638.545 137.287 640.972 138.643C643.398 139.999 646.485 139.142 647.867 136.73L664.09 108.41Z" fill="black"/>
<path d="M699.056 86.6956C700.438 84.283 699.592 81.228 697.165 79.872C694.739 78.5159 691.651 79.3724 690.269 81.785L674.047 110.105C672.665 112.517 673.512 115.572 675.938 116.928C678.365 118.284 681.452 117.428 682.834 115.015L699.056 86.6956Z" fill="black"/>
<path d="M752.859 86.6965C754.241 84.284 753.394 81.229 750.968 79.8729C748.541 78.5169 745.454 79.3734 744.072 81.7859L727.85 110.106C726.468 112.518 727.315 115.573 729.741 116.929C732.168 118.285 735.255 117.429 736.637 115.016L752.859 86.6965Z" fill="black"/>
<path d="M717.881 108.41C719.263 105.997 718.416 102.942 715.989 101.586C713.563 100.23 710.475 101.087 709.093 103.499L692.871 131.819C691.489 134.232 692.336 137.287 694.763 138.643C697.189 139.999 700.276 139.142 701.658 136.73L717.881 108.41Z" fill="black"/>
<path d="M791.685 135.76C788.415 135.76 785.529 134.968 783.026 133.383C780.573 131.799 778.658 129.525 777.278 126.56C775.899 123.595 775.209 120.095 775.209 116.057C775.209 112.019 775.899 108.543 777.278 105.63C778.658 102.717 780.573 100.468 783.026 98.8833C785.529 97.2988 788.415 96.5067 791.685 96.5067C794.648 96.5067 797.254 97.2222 799.502 98.6533C801.801 100.085 803.359 101.95 804.177 104.25H803.334V86.08C803.334 84.1378 803.819 82.6812 804.79 81.71C805.76 80.6878 807.191 80.1767 809.081 80.1767C810.92 80.1767 812.351 80.6878 813.373 81.71C814.394 82.6812 814.905 84.1378 814.905 86.08V129.703C814.905 131.595 814.394 133.051 813.373 134.073C812.402 135.095 810.997 135.607 809.158 135.607C807.318 135.607 805.888 135.095 804.866 134.073C803.895 133.051 803.41 131.595 803.41 129.703V124.49L804.253 127.48C803.538 129.985 802.005 132.003 799.655 133.537C797.356 135.019 794.699 135.76 791.685 135.76ZM795.134 127.097C796.82 127.097 798.276 126.688 799.502 125.87C800.728 125.052 801.699 123.851 802.414 122.267C803.129 120.631 803.487 118.561 803.487 116.057C803.487 112.325 802.72 109.591 801.188 107.853C799.655 106.065 797.637 105.17 795.134 105.17C793.499 105.17 792.043 105.553 790.766 106.32C789.539 107.087 788.569 108.288 787.854 109.923C787.189 111.508 786.857 113.552 786.857 116.057C786.857 119.788 787.624 122.573 789.156 124.413C790.689 126.202 792.681 127.097 795.134 127.097ZM829.799 135.607C827.858 135.607 826.375 135.095 825.354 134.073C824.333 133.051 823.822 131.595 823.822 129.703V102.487C823.822 100.595 824.306 99.1645 825.278 98.1933C826.299 97.1712 827.705 96.66 829.492 96.66C831.332 96.66 832.736 97.1712 833.707 98.1933C834.679 99.1645 835.163 100.595 835.163 102.487V106.473H834.397C835.01 103.407 836.365 101.03 838.459 99.3433C840.553 97.6567 843.262 96.7112 846.582 96.5067C847.86 96.4045 848.829 96.7367 849.494 97.5033C850.208 98.2188 850.592 99.42 850.643 101.107C850.745 102.691 850.413 103.943 849.647 104.863C848.932 105.783 847.706 106.345 845.969 106.55L844.206 106.703C841.294 106.959 839.123 107.802 837.692 109.233C836.313 110.665 835.623 112.735 835.623 115.443V129.703C835.623 131.595 835.112 133.051 834.09 134.073C833.119 135.095 831.69 135.607 829.799 135.607ZM861.226 135.53C859.337 135.53 857.881 134.993 856.858 133.92C855.889 132.795 855.402 131.237 855.402 129.243V103.023C855.402 100.979 855.889 99.42 856.858 98.3467C857.881 97.2222 859.337 96.66 861.226 96.66C863.066 96.66 864.472 97.2222 865.441 98.3467C866.464 99.42 866.974 100.979 866.974 103.023V129.243C866.974 131.237 866.489 132.795 865.518 133.92C864.549 134.993 863.117 135.53 861.226 135.53ZM861.226 90.3733C859.081 90.3733 857.422 89.8878 856.245 88.9167C855.123 87.8945 854.559 86.4633 854.559 84.6233C854.559 82.7322 855.123 81.3012 856.245 80.33C857.422 79.3078 859.081 78.7967 861.226 78.7967C863.372 78.7967 865.008 79.3078 866.131 80.33C867.256 81.3012 867.817 82.7322 867.817 84.6233C867.817 86.4633 867.256 87.8945 866.131 88.9167C865.008 89.8878 863.372 90.3733 861.226 90.3733ZM879.128 134.917C878.003 134.917 877.059 134.635 876.293 134.073C875.526 133.46 875.015 132.693 874.76 131.773C874.503 130.853 874.503 129.857 874.76 128.783C875.066 127.71 875.653 126.713 876.523 125.793L895.298 103.253V105.937H878.668C877.289 105.937 876.216 105.553 875.45 104.787C874.683 104.02 874.3 102.972 874.3 101.643C874.3 100.212 874.683 99.1388 875.45 98.4233C876.216 97.6567 877.289 97.2733 878.668 97.2733H900.815C902.195 97.2733 903.293 97.58 904.111 98.1933C904.927 98.8067 905.463 99.5733 905.72 100.493C906.026 101.362 906.051 102.333 905.797 103.407C905.592 104.429 905.055 105.4 904.187 106.32L884.952 129.32V126.33H902.731C905.643 126.33 907.099 127.761 907.099 130.623C907.099 132.003 906.716 133.077 905.95 133.843C905.184 134.559 904.111 134.917 902.731 134.917H879.128ZM915.947 134.917C914.824 134.917 913.878 134.635 913.111 134.073C912.345 133.46 911.835 132.693 911.579 131.773C911.324 130.853 911.324 129.857 911.579 128.783C911.885 127.71 912.473 126.713 913.341 125.793L932.116 103.253V105.937H915.487C914.108 105.937 913.035 105.553 912.268 104.787C911.502 104.02 911.119 102.972 911.119 101.643C911.119 100.212 911.502 99.1388 912.268 98.4233C913.035 97.6567 914.108 97.2733 915.487 97.2733H937.634C939.013 97.2733 940.113 97.58 940.929 98.1933C941.747 98.8067 942.284 99.5733 942.539 100.493C942.845 101.362 942.872 102.333 942.615 103.407C942.412 104.429 941.876 105.4 941.006 106.32L921.771 129.32V126.33H939.55C942.462 126.33 943.918 127.761 943.918 130.623C943.918 132.003 943.535 133.077 942.769 133.843C942.002 134.559 940.929 134.917 939.55 134.917H915.947ZM963.113 135.76C958.567 135.76 955.168 134.508 952.921 132.003C950.673 129.448 949.549 125.665 949.549 120.657V86.08C949.549 84.1378 950.033 82.6812 951.005 81.71C952.026 80.6878 953.482 80.1767 955.373 80.1767C957.212 80.1767 958.616 80.6878 959.588 81.71C960.609 82.6812 961.12 84.1378 961.12 86.08V120.197C961.12 122.292 961.555 123.851 962.423 124.873C963.343 125.845 964.544 126.33 966.025 126.33C966.433 126.33 966.816 126.305 967.174 126.253C967.533 126.202 967.916 126.177 968.324 126.177C969.142 126.075 969.703 126.33 970.01 126.943C970.368 127.505 970.546 128.655 970.546 130.393C970.546 131.927 970.24 133.102 969.627 133.92C969.014 134.687 968.069 135.198 966.791 135.453C966.28 135.505 965.693 135.555 965.029 135.607C964.364 135.709 963.726 135.76 963.113 135.76ZM994.236 135.76C989.791 135.76 985.959 134.968 982.741 133.383C979.574 131.748 977.121 129.473 975.384 126.56C973.698 123.595 972.855 120.12 972.855 116.133C972.855 112.249 973.673 108.85 975.307 105.937C976.941 102.972 979.215 100.672 982.128 99.0367C985.091 97.35 988.436 96.5067 992.167 96.5067C994.874 96.5067 997.326 96.9667 999.523 97.8867C1001.72 98.7555 1003.61 100.033 1005.19 101.72C1006.78 103.355 1007.98 105.375 1008.8 107.777C1009.61 110.128 1010.02 112.76 1010.02 115.673C1010.02 116.645 1009.72 117.385 1009.1 117.897C1008.49 118.357 1007.59 118.587 1006.42 118.587H982.357V112.607H1001.67L1000.44 113.68C1000.44 111.585 1000.14 109.847 999.523 108.467C998.91 107.035 998.016 105.962 996.841 105.247C995.717 104.531 994.312 104.173 992.626 104.173C990.735 104.173 989.126 104.608 987.798 105.477C986.471 106.345 985.448 107.598 984.733 109.233C984.018 110.869 983.66 112.837 983.66 115.137V115.75C983.66 119.635 984.555 122.497 986.342 124.337C988.182 126.177 990.889 127.097 994.466 127.097C995.692 127.097 997.096 126.943 998.68 126.637C1000.26 126.33 1001.75 125.845 1003.13 125.18C1004.3 124.618 1005.35 124.439 1006.27 124.643C1007.19 124.797 1007.9 125.205 1008.41 125.87C1008.92 126.535 1009.2 127.301 1009.26 128.17C1009.36 129.039 1009.18 129.908 1008.72 130.777C1008.26 131.595 1007.49 132.285 1006.42 132.847C1004.68 133.818 1002.72 134.533 1000.52 134.993C998.374 135.505 996.28 135.76 994.236 135.76Z" fill="black"/>
<defs>
<linearGradient id="paint0_linear_1310_2" x1="17808.6" y1="-204.784" x2="-4489.12" y2="13911.3" gradientUnits="userSpaceOnUse">
<stop stop-color="#FBB743"/>
<stop offset="1" stop-color="#EA6B00"/>
</linearGradient>
<clipPath id="clip0_1310_2">
<rect width="148" height="191" fill="white" transform="translate(798 370)"/>
</clipPath>
</defs>
</svg>
